<mxfile host="app.diagrams.net" modified="2024-05-30T11:17:50.099Z" agent="Mozilla/5.0 (Windows NT 10.0; Win64; x64) AppleWebKit/537.36 (KHTML, like Gecko) Chrome/123.0.0.0 Safari/537.36 OPR/109.0.0.0" etag="8tXt_8fLVk_VDBNeRZ0l" version="24.4.10" type="github">
  <diagram name="Page-1" id="dn-O8Irc8g0oi1aLSOID">
    <mxGraphModel dx="2243" dy="720" grid="1" gridSize="10" guides="1" tooltips="1" connect="1" arrows="1" fold="1" page="1" pageScale="1" pageWidth="850" pageHeight="1100" math="0" shadow="0">
      <root>
        <mxCell id="0" />
        <mxCell id="1" parent="0" />
        <mxCell id="2xOgU_sgIS93VHdDt9-q-6" value="" style="edgeStyle=orthogonalEdgeStyle;rounded=0;orthogonalLoop=1;jettySize=auto;html=1;" parent="1" source="2xOgU_sgIS93VHdDt9-q-5" target="2xOgU_sgIS93VHdDt9-q-1" edge="1">
          <mxGeometry relative="1" as="geometry" />
        </mxCell>
        <mxCell id="2xOgU_sgIS93VHdDt9-q-1" value="Index" style="rounded=0;whiteSpace=wrap;html=1;fontSize=22;labelBackgroundColor=none;fillColor=#d5e8d4;strokeColor=#82b366;fontStyle=1;glass=0;shadow=0;" parent="1" vertex="1">
          <mxGeometry x="310" y="30" width="230" height="70" as="geometry" />
        </mxCell>
        <mxCell id="2xOgU_sgIS93VHdDt9-q-15" value="" style="edgeStyle=orthogonalEdgeStyle;rounded=0;orthogonalLoop=1;jettySize=auto;html=1;endArrow=none;endFill=0;" parent="1" source="2xOgU_sgIS93VHdDt9-q-5" target="2xOgU_sgIS93VHdDt9-q-14" edge="1">
          <mxGeometry relative="1" as="geometry" />
        </mxCell>
        <mxCell id="2xOgU_sgIS93VHdDt9-q-17" value="" style="edgeStyle=orthogonalEdgeStyle;rounded=0;orthogonalLoop=1;jettySize=auto;html=1;endArrow=none;endFill=0;" parent="1" source="2xOgU_sgIS93VHdDt9-q-5" target="2xOgU_sgIS93VHdDt9-q-16" edge="1">
          <mxGeometry relative="1" as="geometry" />
        </mxCell>
        <mxCell id="2xOgU_sgIS93VHdDt9-q-5" value="" style="shape=waypoint;sketch=0;size=6;pointerEvents=1;points=[];fillColor=#dae8fc;resizable=0;rotatable=0;perimeter=centerPerimeter;snapToPoint=1;fontSize=22;strokeColor=#6c8ebf;rounded=0;labelBackgroundColor=none;fontStyle=1;glass=0;shadow=0;" parent="1" vertex="1">
          <mxGeometry x="415" y="160" width="20" height="20" as="geometry" />
        </mxCell>
        <mxCell id="2xOgU_sgIS93VHdDt9-q-21" value="" style="edgeStyle=orthogonalEdgeStyle;rounded=0;orthogonalLoop=1;jettySize=auto;html=1;startArrow=classic;startFill=1;" parent="1" source="2xOgU_sgIS93VHdDt9-q-14" target="2xOgU_sgIS93VHdDt9-q-20" edge="1">
          <mxGeometry relative="1" as="geometry" />
        </mxCell>
        <mxCell id="2xOgU_sgIS93VHdDt9-q-33" value="" style="edgeStyle=orthogonalEdgeStyle;rounded=0;orthogonalLoop=1;jettySize=auto;html=1;strokeColor=default;align=center;verticalAlign=middle;fontFamily=Helvetica;fontSize=11;fontColor=default;labelBackgroundColor=default;endArrow=none;endFill=0;" parent="1" source="2xOgU_sgIS93VHdDt9-q-14" target="2xOgU_sgIS93VHdDt9-q-32" edge="1">
          <mxGeometry relative="1" as="geometry" />
        </mxCell>
        <mxCell id="2xOgU_sgIS93VHdDt9-q-14" value="" style="shape=waypoint;sketch=0;size=6;pointerEvents=1;points=[];fillColor=#dae8fc;resizable=0;rotatable=0;perimeter=centerPerimeter;snapToPoint=1;fontSize=22;strokeColor=#6c8ebf;rounded=0;labelBackgroundColor=none;fontStyle=1;glass=0;shadow=0;" parent="1" vertex="1">
          <mxGeometry x="315" y="160" width="20" height="20" as="geometry" />
        </mxCell>
        <mxCell id="2xOgU_sgIS93VHdDt9-q-19" value="" style="edgeStyle=orthogonalEdgeStyle;rounded=0;orthogonalLoop=1;jettySize=auto;html=1;" parent="1" source="2xOgU_sgIS93VHdDt9-q-16" target="2xOgU_sgIS93VHdDt9-q-18" edge="1">
          <mxGeometry relative="1" as="geometry" />
        </mxCell>
        <mxCell id="2xOgU_sgIS93VHdDt9-q-27" value="" style="edgeStyle=orthogonalEdgeStyle;rounded=0;orthogonalLoop=1;jettySize=auto;html=1;strokeColor=default;align=center;verticalAlign=middle;fontFamily=Helvetica;fontSize=11;fontColor=default;labelBackgroundColor=default;endArrow=none;endFill=0;" parent="1" source="2xOgU_sgIS93VHdDt9-q-16" target="2xOgU_sgIS93VHdDt9-q-26" edge="1">
          <mxGeometry relative="1" as="geometry" />
        </mxCell>
        <mxCell id="QkXWLcEUSxe1uWyTeV2K-1" value="" style="edgeStyle=orthogonalEdgeStyle;rounded=0;orthogonalLoop=1;jettySize=auto;html=1;startArrow=classic;startFill=1;" edge="1" parent="1" source="2xOgU_sgIS93VHdDt9-q-16" target="2xOgU_sgIS93VHdDt9-q-18">
          <mxGeometry relative="1" as="geometry" />
        </mxCell>
        <mxCell id="2xOgU_sgIS93VHdDt9-q-16" value="" style="shape=waypoint;sketch=0;size=6;pointerEvents=1;points=[];fillColor=#dae8fc;resizable=0;rotatable=0;perimeter=centerPerimeter;snapToPoint=1;fontSize=22;strokeColor=#6c8ebf;rounded=0;labelBackgroundColor=none;fontStyle=1;glass=0;shadow=0;" parent="1" vertex="1">
          <mxGeometry x="515" y="160" width="20" height="20" as="geometry" />
        </mxCell>
        <mxCell id="2xOgU_sgIS93VHdDt9-q-18" value="Kontakt" style="whiteSpace=wrap;html=1;fontSize=22;fillColor=#1ba1e2;strokeColor=#006EAF;sketch=0;pointerEvents=1;resizable=0;rounded=0;labelBackgroundColor=none;fontStyle=1;glass=0;shadow=0;fontColor=#000000;" parent="1" vertex="1">
          <mxGeometry x="465" y="240" width="120" height="60" as="geometry" />
        </mxCell>
        <mxCell id="2xOgU_sgIS93VHdDt9-q-20" value="O nas" style="whiteSpace=wrap;html=1;fontSize=22;fillColor=#1ba1e2;strokeColor=#006EAF;sketch=0;pointerEvents=1;resizable=0;rounded=0;labelBackgroundColor=none;fontStyle=1;glass=0;shadow=0;fontColor=#000000;" parent="1" vertex="1">
          <mxGeometry x="265" y="240" width="120" height="60" as="geometry" />
        </mxCell>
        <mxCell id="2xOgU_sgIS93VHdDt9-q-29" value="" style="edgeStyle=orthogonalEdgeStyle;rounded=0;orthogonalLoop=1;jettySize=auto;html=1;strokeColor=default;align=center;verticalAlign=middle;fontFamily=Helvetica;fontSize=11;fontColor=default;labelBackgroundColor=default;endArrow=none;endFill=0;" parent="1" source="2xOgU_sgIS93VHdDt9-q-26" target="2xOgU_sgIS93VHdDt9-q-28" edge="1">
          <mxGeometry relative="1" as="geometry" />
        </mxCell>
        <mxCell id="2xOgU_sgIS93VHdDt9-q-26" value="" style="shape=waypoint;sketch=0;size=6;pointerEvents=1;points=[];fillColor=#dae8fc;resizable=0;rotatable=0;perimeter=centerPerimeter;snapToPoint=1;fontSize=22;strokeColor=#6c8ebf;rounded=0;labelBackgroundColor=none;fontStyle=1;glass=0;shadow=0;" parent="1" vertex="1">
          <mxGeometry x="615" y="160" width="20" height="20" as="geometry" />
        </mxCell>
        <mxCell id="2xOgU_sgIS93VHdDt9-q-31" value="" style="edgeStyle=orthogonalEdgeStyle;rounded=0;orthogonalLoop=1;jettySize=auto;html=1;strokeColor=default;align=center;verticalAlign=middle;fontFamily=Helvetica;fontSize=11;fontColor=default;labelBackgroundColor=default;endArrow=classic;endFill=1;startArrow=classic;startFill=1;" parent="1" source="2xOgU_sgIS93VHdDt9-q-28" target="2xOgU_sgIS93VHdDt9-q-30" edge="1">
          <mxGeometry relative="1" as="geometry" />
        </mxCell>
        <mxCell id="2xOgU_sgIS93VHdDt9-q-41" value="" style="edgeStyle=orthogonalEdgeStyle;rounded=0;orthogonalLoop=1;jettySize=auto;html=1;strokeColor=default;align=center;verticalAlign=middle;fontFamily=Helvetica;fontSize=11;fontColor=default;labelBackgroundColor=default;endArrow=none;endFill=0;" parent="1" source="2xOgU_sgIS93VHdDt9-q-28" target="2xOgU_sgIS93VHdDt9-q-40" edge="1">
          <mxGeometry relative="1" as="geometry" />
        </mxCell>
        <mxCell id="2xOgU_sgIS93VHdDt9-q-28" value="" style="shape=waypoint;sketch=0;size=6;pointerEvents=1;points=[];fillColor=#dae8fc;resizable=0;rotatable=0;perimeter=centerPerimeter;snapToPoint=1;fontSize=22;strokeColor=#6c8ebf;rounded=0;labelBackgroundColor=none;fontStyle=1;glass=0;shadow=0;" parent="1" vertex="1">
          <mxGeometry x="715" y="160" width="20" height="20" as="geometry" />
        </mxCell>
        <mxCell id="2xOgU_sgIS93VHdDt9-q-30" value="Blog" style="rounded=0;whiteSpace=wrap;html=1;fontSize=22;fillColor=#1ba1e2;strokeColor=#006EAF;sketch=0;pointerEvents=1;resizable=0;labelBackgroundColor=none;fontStyle=1;glass=0;shadow=0;fontColor=#000000;" parent="1" vertex="1">
          <mxGeometry x="665" y="240" width="120" height="60" as="geometry" />
        </mxCell>
        <mxCell id="2xOgU_sgIS93VHdDt9-q-35" value="" style="edgeStyle=orthogonalEdgeStyle;rounded=0;orthogonalLoop=1;jettySize=auto;html=1;strokeColor=default;align=center;verticalAlign=middle;fontFamily=Helvetica;fontSize=11;fontColor=default;labelBackgroundColor=default;endArrow=none;endFill=0;" parent="1" source="2xOgU_sgIS93VHdDt9-q-32" target="2xOgU_sgIS93VHdDt9-q-34" edge="1">
          <mxGeometry relative="1" as="geometry" />
        </mxCell>
        <mxCell id="2xOgU_sgIS93VHdDt9-q-32" value="" style="shape=waypoint;sketch=0;size=6;pointerEvents=1;points=[];fillColor=#dae8fc;resizable=0;rotatable=0;perimeter=centerPerimeter;snapToPoint=1;fontSize=22;strokeColor=#6c8ebf;rounded=0;labelBackgroundColor=none;fontStyle=1;glass=0;shadow=0;" parent="1" vertex="1">
          <mxGeometry x="215" y="160" width="20" height="20" as="geometry" />
        </mxCell>
        <mxCell id="2xOgU_sgIS93VHdDt9-q-142" value="" style="edgeStyle=orthogonalEdgeStyle;rounded=0;orthogonalLoop=1;jettySize=auto;html=1;strokeColor=default;align=center;verticalAlign=middle;fontFamily=Helvetica;fontSize=11;fontColor=default;labelBackgroundColor=default;endArrow=classic;endFill=1;startArrow=classic;startFill=1;" parent="1" source="2xOgU_sgIS93VHdDt9-q-34" target="2xOgU_sgIS93VHdDt9-q-48" edge="1">
          <mxGeometry relative="1" as="geometry" />
        </mxCell>
        <mxCell id="2xOgU_sgIS93VHdDt9-q-34" value="" style="shape=waypoint;sketch=0;size=6;pointerEvents=1;points=[];fillColor=#dae8fc;resizable=0;rotatable=0;perimeter=centerPerimeter;snapToPoint=1;fontSize=22;strokeColor=#6c8ebf;rounded=0;labelBackgroundColor=none;fontStyle=1;glass=0;shadow=0;" parent="1" vertex="1">
          <mxGeometry x="115" y="160" width="20" height="20" as="geometry" />
        </mxCell>
        <mxCell id="2xOgU_sgIS93VHdDt9-q-43" value="" style="edgeStyle=orthogonalEdgeStyle;rounded=0;orthogonalLoop=1;jettySize=auto;html=1;strokeColor=default;align=center;verticalAlign=middle;fontFamily=Helvetica;fontSize=11;fontColor=default;labelBackgroundColor=default;endArrow=none;endFill=0;" parent="1" source="2xOgU_sgIS93VHdDt9-q-40" target="2xOgU_sgIS93VHdDt9-q-42" edge="1">
          <mxGeometry relative="1" as="geometry" />
        </mxCell>
        <mxCell id="2xOgU_sgIS93VHdDt9-q-40" value="" style="shape=waypoint;sketch=0;size=6;pointerEvents=1;points=[];fillColor=#dae8fc;resizable=0;rotatable=0;perimeter=centerPerimeter;snapToPoint=1;fontSize=22;strokeColor=#6c8ebf;rounded=0;labelBackgroundColor=none;fontStyle=1;glass=0;shadow=0;" parent="1" vertex="1">
          <mxGeometry x="815" y="160" width="20" height="20" as="geometry" />
        </mxCell>
        <mxCell id="2xOgU_sgIS93VHdDt9-q-51" value="" style="edgeStyle=orthogonalEdgeStyle;rounded=0;orthogonalLoop=1;jettySize=auto;html=1;strokeColor=default;align=center;verticalAlign=middle;fontFamily=Helvetica;fontSize=11;fontColor=default;labelBackgroundColor=default;endArrow=classic;endFill=1;startArrow=classic;startFill=1;" parent="1" source="2xOgU_sgIS93VHdDt9-q-42" target="2xOgU_sgIS93VHdDt9-q-50" edge="1">
          <mxGeometry relative="1" as="geometry" />
        </mxCell>
        <mxCell id="2xOgU_sgIS93VHdDt9-q-42" value="" style="shape=waypoint;sketch=0;size=6;pointerEvents=1;points=[];fillColor=#dae8fc;resizable=0;rotatable=0;perimeter=centerPerimeter;snapToPoint=1;fontSize=22;strokeColor=#6c8ebf;rounded=0;labelBackgroundColor=none;fontStyle=1;glass=0;shadow=0;" parent="1" vertex="1">
          <mxGeometry x="915" y="160" width="20" height="20" as="geometry" />
        </mxCell>
        <mxCell id="2xOgU_sgIS93VHdDt9-q-139" value="" style="edgeStyle=orthogonalEdgeStyle;rounded=0;orthogonalLoop=1;jettySize=auto;html=1;strokeColor=default;align=center;verticalAlign=middle;fontFamily=Helvetica;fontSize=11;fontColor=default;labelBackgroundColor=default;endArrow=none;endFill=0;" parent="1" source="2xOgU_sgIS93VHdDt9-q-48" target="2xOgU_sgIS93VHdDt9-q-138" edge="1">
          <mxGeometry relative="1" as="geometry">
            <Array as="points">
              <mxPoint x="125" y="430" />
            </Array>
          </mxGeometry>
        </mxCell>
        <mxCell id="2xOgU_sgIS93VHdDt9-q-48" value="Storitve" style="whiteSpace=wrap;html=1;fontSize=22;fillColor=#f0a30a;strokeColor=#BD7000;sketch=0;pointerEvents=1;resizable=0;rounded=0;labelBackgroundColor=none;fontStyle=1;glass=0;shadow=0;fontColor=#000000;" parent="1" vertex="1">
          <mxGeometry x="65" y="240" width="120" height="60" as="geometry" />
        </mxCell>
        <mxCell id="2xOgU_sgIS93VHdDt9-q-117" value="" style="edgeStyle=orthogonalEdgeStyle;rounded=0;orthogonalLoop=1;jettySize=auto;html=1;strokeColor=default;align=center;verticalAlign=middle;fontFamily=Helvetica;fontSize=11;fontColor=default;labelBackgroundColor=default;endArrow=none;endFill=0;entryX=1.123;entryY=0.005;entryDx=0;entryDy=0;entryPerimeter=0;" parent="1" target="2xOgU_sgIS93VHdDt9-q-116" edge="1">
          <mxGeometry relative="1" as="geometry">
            <mxPoint x="890" y="270.090909090909" as="sourcePoint" />
            <mxPoint x="955" y="410" as="targetPoint" />
          </mxGeometry>
        </mxCell>
        <mxCell id="2xOgU_sgIS93VHdDt9-q-50" value="Ostalo" style="whiteSpace=wrap;html=1;fontSize=22;fillColor=#f0a30a;strokeColor=#BD7000;sketch=0;pointerEvents=1;resizable=0;rounded=0;labelBackgroundColor=none;fontStyle=1;glass=0;shadow=0;fontColor=#000000;" parent="1" vertex="1">
          <mxGeometry x="865" y="240" width="120" height="60" as="geometry" />
        </mxCell>
        <mxCell id="2xOgU_sgIS93VHdDt9-q-95" value="" style="edgeStyle=orthogonalEdgeStyle;rounded=0;orthogonalLoop=1;jettySize=auto;html=1;strokeColor=default;align=center;verticalAlign=middle;fontFamily=Helvetica;fontSize=11;fontColor=default;labelBackgroundColor=default;endArrow=none;endFill=0;" parent="1" source="2xOgU_sgIS93VHdDt9-q-92" target="2xOgU_sgIS93VHdDt9-q-94" edge="1">
          <mxGeometry relative="1" as="geometry" />
        </mxCell>
        <mxCell id="2xOgU_sgIS93VHdDt9-q-97" value="" style="edgeStyle=orthogonalEdgeStyle;rounded=0;orthogonalLoop=1;jettySize=auto;html=1;strokeColor=default;align=center;verticalAlign=middle;fontFamily=Helvetica;fontSize=11;fontColor=default;labelBackgroundColor=default;endArrow=none;endFill=0;" parent="1" source="2xOgU_sgIS93VHdDt9-q-138" target="2xOgU_sgIS93VHdDt9-q-96" edge="1">
          <mxGeometry relative="1" as="geometry" />
        </mxCell>
        <mxCell id="2xOgU_sgIS93VHdDt9-q-92" value="" style="shape=waypoint;sketch=0;size=6;pointerEvents=1;points=[];fillColor=#dae8fc;resizable=0;rotatable=0;perimeter=centerPerimeter;snapToPoint=1;fontSize=22;strokeColor=#6c8ebf;rounded=0;labelBackgroundColor=none;fontStyle=1;glass=0;shadow=0;" parent="1" vertex="1">
          <mxGeometry x="110" y="420" width="20" height="20" as="geometry" />
        </mxCell>
        <mxCell id="2xOgU_sgIS93VHdDt9-q-99" value="" style="edgeStyle=orthogonalEdgeStyle;rounded=0;orthogonalLoop=1;jettySize=auto;html=1;strokeColor=default;align=center;verticalAlign=middle;fontFamily=Helvetica;fontSize=11;fontColor=default;labelBackgroundColor=default;endArrow=none;endFill=0;" parent="1" source="2xOgU_sgIS93VHdDt9-q-94" target="2xOgU_sgIS93VHdDt9-q-98" edge="1">
          <mxGeometry relative="1" as="geometry" />
        </mxCell>
        <mxCell id="2xOgU_sgIS93VHdDt9-q-105" value="" style="edgeStyle=orthogonalEdgeStyle;rounded=0;orthogonalLoop=1;jettySize=auto;html=1;strokeColor=default;align=center;verticalAlign=middle;fontFamily=Helvetica;fontSize=11;fontColor=default;labelBackgroundColor=default;endArrow=none;endFill=0;" parent="1" source="2xOgU_sgIS93VHdDt9-q-94" target="2xOgU_sgIS93VHdDt9-q-104" edge="1">
          <mxGeometry relative="1" as="geometry" />
        </mxCell>
        <mxCell id="2xOgU_sgIS93VHdDt9-q-94" value="" style="shape=waypoint;sketch=0;size=6;pointerEvents=1;points=[];fillColor=#dae8fc;resizable=0;rotatable=0;perimeter=centerPerimeter;snapToPoint=1;fontSize=22;strokeColor=#6c8ebf;rounded=0;labelBackgroundColor=none;fontStyle=1;glass=0;shadow=0;" parent="1" vertex="1">
          <mxGeometry x="210" y="420" width="20" height="20" as="geometry" />
        </mxCell>
        <mxCell id="2xOgU_sgIS93VHdDt9-q-101" value="" style="edgeStyle=orthogonalEdgeStyle;rounded=0;orthogonalLoop=1;jettySize=auto;html=1;strokeColor=default;align=center;verticalAlign=middle;fontFamily=Helvetica;fontSize=11;fontColor=default;labelBackgroundColor=default;endArrow=none;endFill=0;" parent="1" source="2xOgU_sgIS93VHdDt9-q-96" target="2xOgU_sgIS93VHdDt9-q-100" edge="1">
          <mxGeometry relative="1" as="geometry" />
        </mxCell>
        <mxCell id="2xOgU_sgIS93VHdDt9-q-107" value="" style="edgeStyle=orthogonalEdgeStyle;rounded=0;orthogonalLoop=1;jettySize=auto;html=1;strokeColor=default;align=center;verticalAlign=middle;fontFamily=Helvetica;fontSize=11;fontColor=default;labelBackgroundColor=default;endArrow=none;endFill=0;" parent="1" source="2xOgU_sgIS93VHdDt9-q-96" target="2xOgU_sgIS93VHdDt9-q-106" edge="1">
          <mxGeometry relative="1" as="geometry" />
        </mxCell>
        <mxCell id="2xOgU_sgIS93VHdDt9-q-96" value="" style="shape=waypoint;sketch=0;size=6;pointerEvents=1;points=[];fillColor=#dae8fc;resizable=0;rotatable=0;perimeter=centerPerimeter;snapToPoint=1;fontSize=22;strokeColor=#6c8ebf;rounded=0;labelBackgroundColor=none;fontStyle=1;glass=0;shadow=0;" parent="1" vertex="1">
          <mxGeometry x="10" y="420" width="20" height="20" as="geometry" />
        </mxCell>
        <mxCell id="2xOgU_sgIS93VHdDt9-q-98" value="Gostovanje" style="whiteSpace=wrap;html=1;fontSize=17;fillColor=#1ba1e2;strokeColor=#006EAF;sketch=0;pointerEvents=1;resizable=0;rounded=0;labelBackgroundColor=none;fontStyle=0;glass=0;shadow=0;fontColor=#000000;" parent="1" vertex="1">
          <mxGeometry x="160" y="500" width="120" height="60" as="geometry" />
        </mxCell>
        <mxCell id="QkXWLcEUSxe1uWyTeV2K-11" style="edgeStyle=orthogonalEdgeStyle;rounded=0;orthogonalLoop=1;jettySize=auto;html=1;exitX=0;exitY=0.75;exitDx=0;exitDy=0;" edge="1" parent="1" source="2xOgU_sgIS93VHdDt9-q-100">
          <mxGeometry relative="1" as="geometry">
            <mxPoint x="80.28571428571422" y="515.2857142857143" as="targetPoint" />
          </mxGeometry>
        </mxCell>
        <mxCell id="2xOgU_sgIS93VHdDt9-q-100" value="Izdelava strani" style="whiteSpace=wrap;html=1;fontSize=17;fillColor=#1ba1e2;strokeColor=#000000;sketch=0;pointerEvents=1;resizable=0;rounded=0;labelBackgroundColor=none;fontStyle=0;glass=0;shadow=0;fontColor=#000000;direction=west;strokeWidth=1;" parent="1" vertex="1">
          <mxGeometry x="-40" y="500" width="120" height="60" as="geometry" />
        </mxCell>
        <mxCell id="2xOgU_sgIS93VHdDt9-q-113" value="" style="edgeStyle=orthogonalEdgeStyle;rounded=0;orthogonalLoop=1;jettySize=auto;html=1;strokeColor=default;align=center;verticalAlign=middle;fontFamily=Helvetica;fontSize=11;fontColor=default;labelBackgroundColor=default;endArrow=none;endFill=0;" parent="1" source="2xOgU_sgIS93VHdDt9-q-104" target="2xOgU_sgIS93VHdDt9-q-112" edge="1">
          <mxGeometry relative="1" as="geometry" />
        </mxCell>
        <mxCell id="2xOgU_sgIS93VHdDt9-q-104" value="" style="shape=waypoint;sketch=0;size=6;pointerEvents=1;points=[];fillColor=#dae8fc;resizable=0;rotatable=0;perimeter=centerPerimeter;snapToPoint=1;fontSize=22;strokeColor=#6c8ebf;rounded=0;labelBackgroundColor=none;fontStyle=1;glass=0;shadow=0;" parent="1" vertex="1">
          <mxGeometry x="310" y="420" width="20" height="20" as="geometry" />
        </mxCell>
        <mxCell id="2xOgU_sgIS93VHdDt9-q-109" value="" style="edgeStyle=orthogonalEdgeStyle;rounded=0;orthogonalLoop=1;jettySize=auto;html=1;strokeColor=default;align=center;verticalAlign=middle;fontFamily=Helvetica;fontSize=11;fontColor=default;labelBackgroundColor=default;endArrow=none;endFill=0;" parent="1" source="2xOgU_sgIS93VHdDt9-q-106" target="2xOgU_sgIS93VHdDt9-q-108" edge="1">
          <mxGeometry relative="1" as="geometry" />
        </mxCell>
        <mxCell id="2xOgU_sgIS93VHdDt9-q-106" value="" style="shape=waypoint;sketch=0;size=6;pointerEvents=1;points=[];fillColor=#dae8fc;resizable=0;rotatable=0;perimeter=centerPerimeter;snapToPoint=1;fontSize=22;strokeColor=#6c8ebf;rounded=0;labelBackgroundColor=none;fontStyle=1;glass=0;shadow=0;" parent="1" vertex="1">
          <mxGeometry x="-90" y="420" width="20" height="20" as="geometry" />
        </mxCell>
        <mxCell id="2xOgU_sgIS93VHdDt9-q-111" value="" style="edgeStyle=orthogonalEdgeStyle;rounded=0;orthogonalLoop=1;jettySize=auto;html=1;strokeColor=default;align=center;verticalAlign=middle;fontFamily=Helvetica;fontSize=11;fontColor=default;labelBackgroundColor=default;endArrow=none;endFill=0;" parent="1" source="2xOgU_sgIS93VHdDt9-q-108" target="2xOgU_sgIS93VHdDt9-q-110" edge="1">
          <mxGeometry relative="1" as="geometry" />
        </mxCell>
        <mxCell id="2xOgU_sgIS93VHdDt9-q-108" value="" style="shape=waypoint;sketch=0;size=6;pointerEvents=1;points=[];fillColor=#dae8fc;resizable=0;rotatable=0;perimeter=centerPerimeter;snapToPoint=1;fontSize=22;strokeColor=#6c8ebf;rounded=0;labelBackgroundColor=none;fontStyle=1;glass=0;shadow=0;" parent="1" vertex="1">
          <mxGeometry x="-190" y="420" width="20" height="20" as="geometry" />
        </mxCell>
        <mxCell id="2xOgU_sgIS93VHdDt9-q-110" value="Cenik" style="whiteSpace=wrap;html=1;fontSize=17;fillColor=#1ba1e2;strokeColor=#006EAF;sketch=0;pointerEvents=1;resizable=0;rounded=0;labelBackgroundColor=none;fontStyle=0;glass=0;shadow=0;fontColor=#000000;" parent="1" vertex="1">
          <mxGeometry x="-240" y="500" width="120" height="60" as="geometry" />
        </mxCell>
        <mxCell id="2xOgU_sgIS93VHdDt9-q-115" value="" style="edgeStyle=orthogonalEdgeStyle;rounded=0;orthogonalLoop=1;jettySize=auto;html=1;strokeColor=default;align=center;verticalAlign=middle;fontFamily=Helvetica;fontSize=11;fontColor=default;labelBackgroundColor=default;endArrow=none;endFill=0;" parent="1" source="2xOgU_sgIS93VHdDt9-q-112" target="2xOgU_sgIS93VHdDt9-q-114" edge="1">
          <mxGeometry relative="1" as="geometry" />
        </mxCell>
        <mxCell id="2xOgU_sgIS93VHdDt9-q-112" value="" style="shape=waypoint;sketch=0;size=6;pointerEvents=1;points=[];fillColor=#dae8fc;resizable=0;rotatable=0;perimeter=centerPerimeter;snapToPoint=1;fontSize=22;strokeColor=#6c8ebf;rounded=0;labelBackgroundColor=none;fontStyle=1;glass=0;shadow=0;" parent="1" vertex="1">
          <mxGeometry x="410" y="420" width="20" height="20" as="geometry" />
        </mxCell>
        <mxCell id="2xOgU_sgIS93VHdDt9-q-114" value="Nakup Domene" style="whiteSpace=wrap;html=1;fontSize=17;fillColor=#1ba1e2;strokeColor=#006EAF;sketch=0;pointerEvents=1;resizable=0;rounded=0;labelBackgroundColor=none;fontStyle=0;glass=0;shadow=0;fontColor=#000000;" parent="1" vertex="1">
          <mxGeometry x="360" y="500" width="120" height="60" as="geometry" />
        </mxCell>
        <mxCell id="2xOgU_sgIS93VHdDt9-q-119" value="" style="edgeStyle=orthogonalEdgeStyle;rounded=0;orthogonalLoop=1;jettySize=auto;html=1;strokeColor=default;align=center;verticalAlign=middle;fontFamily=Helvetica;fontSize=11;fontColor=default;labelBackgroundColor=default;endArrow=none;endFill=0;" parent="1" source="2xOgU_sgIS93VHdDt9-q-116" target="2xOgU_sgIS93VHdDt9-q-118" edge="1">
          <mxGeometry relative="1" as="geometry" />
        </mxCell>
        <mxCell id="2xOgU_sgIS93VHdDt9-q-123" value="" style="edgeStyle=orthogonalEdgeStyle;rounded=0;orthogonalLoop=1;jettySize=auto;html=1;strokeColor=default;align=center;verticalAlign=middle;fontFamily=Helvetica;fontSize=11;fontColor=default;labelBackgroundColor=default;endArrow=none;endFill=0;" parent="1" source="2xOgU_sgIS93VHdDt9-q-116" target="2xOgU_sgIS93VHdDt9-q-122" edge="1">
          <mxGeometry relative="1" as="geometry" />
        </mxCell>
        <mxCell id="2xOgU_sgIS93VHdDt9-q-116" value="" style="shape=waypoint;sketch=0;size=6;pointerEvents=1;points=[];fillColor=#dae8fc;resizable=0;rotatable=0;perimeter=centerPerimeter;snapToPoint=1;fontSize=22;strokeColor=#6c8ebf;rounded=0;labelBackgroundColor=none;fontStyle=1;glass=0;shadow=0;" parent="1" vertex="1">
          <mxGeometry x="940" y="420" width="20" height="20" as="geometry" />
        </mxCell>
        <mxCell id="2xOgU_sgIS93VHdDt9-q-121" value="" style="edgeStyle=orthogonalEdgeStyle;rounded=0;orthogonalLoop=1;jettySize=auto;html=1;strokeColor=default;align=center;verticalAlign=middle;fontFamily=Helvetica;fontSize=11;fontColor=default;labelBackgroundColor=default;endArrow=none;endFill=0;" parent="1" source="2xOgU_sgIS93VHdDt9-q-118" target="2xOgU_sgIS93VHdDt9-q-120" edge="1">
          <mxGeometry relative="1" as="geometry" />
        </mxCell>
        <mxCell id="2xOgU_sgIS93VHdDt9-q-127" value="" style="edgeStyle=orthogonalEdgeStyle;rounded=0;orthogonalLoop=1;jettySize=auto;html=1;strokeColor=default;align=center;verticalAlign=middle;fontFamily=Helvetica;fontSize=11;fontColor=default;labelBackgroundColor=default;endArrow=none;endFill=0;" parent="1" source="2xOgU_sgIS93VHdDt9-q-118" target="2xOgU_sgIS93VHdDt9-q-126" edge="1">
          <mxGeometry relative="1" as="geometry" />
        </mxCell>
        <mxCell id="2xOgU_sgIS93VHdDt9-q-118" value="" style="shape=waypoint;sketch=0;size=6;pointerEvents=1;points=[];fillColor=#dae8fc;resizable=0;rotatable=0;perimeter=centerPerimeter;snapToPoint=1;fontSize=22;strokeColor=#6c8ebf;rounded=0;labelBackgroundColor=none;fontStyle=1;glass=0;shadow=0;" parent="1" vertex="1">
          <mxGeometry x="840" y="420" width="20" height="20" as="geometry" />
        </mxCell>
        <mxCell id="2xOgU_sgIS93VHdDt9-q-120" value="Partnerji" style="whiteSpace=wrap;html=1;fontSize=17;fillColor=#1ba1e2;strokeColor=#006EAF;sketch=0;pointerEvents=1;resizable=0;rounded=0;labelBackgroundColor=none;fontStyle=0;glass=0;shadow=0;fontColor=#000000;" parent="1" vertex="1">
          <mxGeometry x="790" y="500" width="120" height="60" as="geometry" />
        </mxCell>
        <mxCell id="2xOgU_sgIS93VHdDt9-q-125" value="" style="edgeStyle=orthogonalEdgeStyle;rounded=0;orthogonalLoop=1;jettySize=auto;html=1;strokeColor=default;align=center;verticalAlign=middle;fontFamily=Helvetica;fontSize=11;fontColor=default;labelBackgroundColor=default;endArrow=none;endFill=0;" parent="1" source="2xOgU_sgIS93VHdDt9-q-122" target="2xOgU_sgIS93VHdDt9-q-124" edge="1">
          <mxGeometry relative="1" as="geometry" />
        </mxCell>
        <mxCell id="2xOgU_sgIS93VHdDt9-q-133" value="" style="edgeStyle=orthogonalEdgeStyle;rounded=0;orthogonalLoop=1;jettySize=auto;html=1;strokeColor=default;align=center;verticalAlign=middle;fontFamily=Helvetica;fontSize=11;fontColor=default;labelBackgroundColor=default;endArrow=none;endFill=0;" parent="1" source="2xOgU_sgIS93VHdDt9-q-122" target="2xOgU_sgIS93VHdDt9-q-132" edge="1">
          <mxGeometry relative="1" as="geometry" />
        </mxCell>
        <mxCell id="2xOgU_sgIS93VHdDt9-q-122" value="" style="shape=waypoint;sketch=0;size=6;pointerEvents=1;points=[];fillColor=#dae8fc;resizable=0;rotatable=0;perimeter=centerPerimeter;snapToPoint=1;fontSize=22;strokeColor=#6c8ebf;rounded=0;labelBackgroundColor=none;fontStyle=1;glass=0;shadow=0;" parent="1" vertex="1">
          <mxGeometry x="1040" y="420" width="20" height="20" as="geometry" />
        </mxCell>
        <mxCell id="2xOgU_sgIS93VHdDt9-q-124" value="Naši projekti" style="whiteSpace=wrap;html=1;fontSize=17;fillColor=#1ba1e2;strokeColor=#006EAF;sketch=0;pointerEvents=1;resizable=0;rounded=0;labelBackgroundColor=none;fontStyle=0;glass=0;shadow=0;fontColor=#000000;" parent="1" vertex="1">
          <mxGeometry x="990" y="500" width="120" height="60" as="geometry" />
        </mxCell>
        <mxCell id="2xOgU_sgIS93VHdDt9-q-129" value="" style="edgeStyle=orthogonalEdgeStyle;rounded=0;orthogonalLoop=1;jettySize=auto;html=1;strokeColor=default;align=center;verticalAlign=middle;fontFamily=Helvetica;fontSize=11;fontColor=default;labelBackgroundColor=default;endArrow=none;endFill=0;" parent="1" source="2xOgU_sgIS93VHdDt9-q-126" target="2xOgU_sgIS93VHdDt9-q-128" edge="1">
          <mxGeometry relative="1" as="geometry" />
        </mxCell>
        <mxCell id="2xOgU_sgIS93VHdDt9-q-126" value="" style="shape=waypoint;sketch=0;size=6;pointerEvents=1;points=[];fillColor=#dae8fc;resizable=0;rotatable=0;perimeter=centerPerimeter;snapToPoint=1;fontSize=22;strokeColor=#6c8ebf;rounded=0;labelBackgroundColor=none;fontStyle=1;glass=0;shadow=0;" parent="1" vertex="1">
          <mxGeometry x="740" y="420" width="20" height="20" as="geometry" />
        </mxCell>
        <mxCell id="2xOgU_sgIS93VHdDt9-q-131" value="" style="edgeStyle=orthogonalEdgeStyle;rounded=0;orthogonalLoop=1;jettySize=auto;html=1;strokeColor=default;align=center;verticalAlign=middle;fontFamily=Helvetica;fontSize=11;fontColor=default;labelBackgroundColor=default;endArrow=none;endFill=0;" parent="1" source="2xOgU_sgIS93VHdDt9-q-128" target="2xOgU_sgIS93VHdDt9-q-130" edge="1">
          <mxGeometry relative="1" as="geometry" />
        </mxCell>
        <mxCell id="2xOgU_sgIS93VHdDt9-q-128" value="" style="shape=waypoint;sketch=0;size=6;pointerEvents=1;points=[];fillColor=#dae8fc;resizable=0;rotatable=0;perimeter=centerPerimeter;snapToPoint=1;fontSize=22;strokeColor=#6c8ebf;rounded=0;labelBackgroundColor=none;fontStyle=1;glass=0;shadow=0;" parent="1" vertex="1">
          <mxGeometry x="640" y="420" width="20" height="20" as="geometry" />
        </mxCell>
        <mxCell id="2xOgU_sgIS93VHdDt9-q-130" value="Pogosta vprašanja" style="whiteSpace=wrap;html=1;fontSize=17;fillColor=#1ba1e2;strokeColor=#006EAF;sketch=0;pointerEvents=1;resizable=0;rounded=0;labelBackgroundColor=none;fontStyle=0;glass=0;shadow=0;fontColor=#000000;" parent="1" vertex="1">
          <mxGeometry x="590" y="500" width="120" height="60" as="geometry" />
        </mxCell>
        <mxCell id="2xOgU_sgIS93VHdDt9-q-135" value="" style="edgeStyle=orthogonalEdgeStyle;rounded=0;orthogonalLoop=1;jettySize=auto;html=1;strokeColor=default;align=center;verticalAlign=middle;fontFamily=Helvetica;fontSize=11;fontColor=default;labelBackgroundColor=default;endArrow=none;endFill=0;" parent="1" source="2xOgU_sgIS93VHdDt9-q-132" target="2xOgU_sgIS93VHdDt9-q-134" edge="1">
          <mxGeometry relative="1" as="geometry" />
        </mxCell>
        <mxCell id="2xOgU_sgIS93VHdDt9-q-132" value="" style="shape=waypoint;sketch=0;size=6;pointerEvents=1;points=[];fillColor=#dae8fc;resizable=0;rotatable=0;perimeter=centerPerimeter;snapToPoint=1;fontSize=22;strokeColor=#6c8ebf;rounded=0;labelBackgroundColor=none;fontStyle=1;glass=0;shadow=0;" parent="1" vertex="1">
          <mxGeometry x="1140" y="420" width="20" height="20" as="geometry" />
        </mxCell>
        <mxCell id="2xOgU_sgIS93VHdDt9-q-137" value="" style="edgeStyle=orthogonalEdgeStyle;rounded=0;orthogonalLoop=1;jettySize=auto;html=1;strokeColor=default;align=center;verticalAlign=middle;fontFamily=Helvetica;fontSize=11;fontColor=default;labelBackgroundColor=default;endArrow=none;endFill=0;" parent="1" source="2xOgU_sgIS93VHdDt9-q-134" target="2xOgU_sgIS93VHdDt9-q-136" edge="1">
          <mxGeometry relative="1" as="geometry" />
        </mxCell>
        <mxCell id="2xOgU_sgIS93VHdDt9-q-134" value="" style="shape=waypoint;sketch=0;size=6;pointerEvents=1;points=[];fillColor=#dae8fc;resizable=0;rotatable=0;perimeter=centerPerimeter;snapToPoint=1;fontSize=22;strokeColor=#6c8ebf;rounded=0;labelBackgroundColor=none;fontStyle=1;glass=0;shadow=0;" parent="1" vertex="1">
          <mxGeometry x="1240" y="420" width="20" height="20" as="geometry" />
        </mxCell>
        <mxCell id="2xOgU_sgIS93VHdDt9-q-136" value="Delovna mesta" style="whiteSpace=wrap;html=1;fontSize=17;fillColor=#1ba1e2;strokeColor=#006EAF;sketch=0;pointerEvents=1;resizable=0;rounded=0;labelBackgroundColor=none;fontStyle=0;glass=0;shadow=0;fontColor=#000000;" parent="1" vertex="1">
          <mxGeometry x="1190" y="500" width="120" height="60" as="geometry" />
        </mxCell>
        <mxCell id="2xOgU_sgIS93VHdDt9-q-140" value="" style="edgeStyle=orthogonalEdgeStyle;rounded=0;orthogonalLoop=1;jettySize=auto;html=1;strokeColor=default;align=center;verticalAlign=middle;fontFamily=Helvetica;fontSize=11;fontColor=default;labelBackgroundColor=default;endArrow=none;endFill=0;" parent="1" source="2xOgU_sgIS93VHdDt9-q-92" target="2xOgU_sgIS93VHdDt9-q-138" edge="1">
          <mxGeometry relative="1" as="geometry">
            <mxPoint x="120" y="430" as="sourcePoint" />
            <mxPoint x="20" y="430" as="targetPoint" />
          </mxGeometry>
        </mxCell>
        <mxCell id="2xOgU_sgIS93VHdDt9-q-138" value="" style="shape=waypoint;sketch=0;size=6;pointerEvents=1;points=[];fillColor=#dae8fc;resizable=0;rotatable=0;perimeter=centerPerimeter;snapToPoint=1;fontSize=22;strokeColor=#6c8ebf;rounded=0;labelBackgroundColor=none;fontStyle=1;glass=0;shadow=0;" parent="1" vertex="1">
          <mxGeometry x="90" y="420" width="20" height="20" as="geometry" />
        </mxCell>
      </root>
    </mxGraphModel>
  </diagram>
</mxfile>
